{
	"patcher" : 	{
		"fileversion" : 1,
		"appversion" : 		{
			"major" : 8,
			"minor" : 1,
			"revision" : 3,
			"architecture" : "x64",
			"modernui" : 1
		}
,
		"classnamespace" : "box",
		"rect" : [ 768.0, 170.0, 853.0, 480.0 ],
		"bglocked" : 0,
		"openinpresentation" : 0,
		"default_fontsize" : 12.0,
		"default_fontface" : 0,
		"default_fontname" : "Arial",
		"gridonopen" : 1,
		"gridsize" : [ 15.0, 15.0 ],
		"gridsnaponopen" : 1,
		"objectsnaponopen" : 1,
		"statusbarvisible" : 2,
		"toolbarvisible" : 1,
		"lefttoolbarpinned" : 0,
		"toptoolbarpinned" : 0,
		"righttoolbarpinned" : 0,
		"bottomtoolbarpinned" : 0,
		"toolbars_unpinned_last_save" : 0,
		"tallnewobj" : 0,
		"boxanimatetime" : 200,
		"enablehscroll" : 1,
		"enablevscroll" : 1,
		"devicewidth" : 0.0,
		"description" : "",
		"digest" : "",
		"tags" : "",
		"style" : "",
		"subpatcher_template" : "",
		"boxes" : [ 			{
				"box" : 				{
					"id" : "obj-39",
					"maxclass" : "newobj",
					"numinlets" : 1,
					"numoutlets" : 0,
					"patching_rect" : [ 510.0, 362.0, 114.0, 22.0 ],
					"text" : "s #1_matchertoggle"
				}

			}
, 			{
				"box" : 				{
					"id" : "obj-40",
					"maxclass" : "newobj",
					"numinlets" : 2,
					"numoutlets" : 2,
					"outlettype" : [ "", "" ],
					"patching_rect" : [ 510.0, 336.0, 135.0, 22.0 ],
					"text" : "route #1_matchertoggle"
				}

			}
, 			{
				"box" : 				{
					"id" : "obj-37",
					"maxclass" : "newobj",
					"numinlets" : 1,
					"numoutlets" : 0,
					"patching_rect" : [ 370.0, 362.0, 110.0, 22.0 ],
					"text" : "s #1_markovtoggle"
				}

			}
, 			{
				"box" : 				{
					"id" : "obj-38",
					"maxclass" : "newobj",
					"numinlets" : 2,
					"numoutlets" : 2,
					"outlettype" : [ "", "" ],
					"patching_rect" : [ 370.0, 336.0, 131.0, 22.0 ],
					"text" : "route #1_markovtoggle"
				}

			}
, 			{
				"box" : 				{
					"id" : "obj-35",
					"maxclass" : "newobj",
					"numinlets" : 1,
					"numoutlets" : 0,
					"patching_rect" : [ 224.0, 362.0, 111.0, 22.0 ],
					"text" : "s #1_leader2toggle"
				}

			}
, 			{
				"box" : 				{
					"id" : "obj-36",
					"maxclass" : "newobj",
					"numinlets" : 2,
					"numoutlets" : 2,
					"outlettype" : [ "", "" ],
					"patching_rect" : [ 224.0, 336.0, 132.0, 22.0 ],
					"text" : "route #1_leader2toggle"
				}

			}
, 			{
				"box" : 				{
					"id" : "obj-33",
					"maxclass" : "newobj",
					"numinlets" : 1,
					"numoutlets" : 0,
					"patching_rect" : [ 68.0, 362.0, 111.0, 22.0 ],
					"text" : "s #1_leader1toggle"
				}

			}
, 			{
				"box" : 				{
					"id" : "obj-34",
					"maxclass" : "newobj",
					"numinlets" : 2,
					"numoutlets" : 2,
					"outlettype" : [ "", "" ],
					"patching_rect" : [ 68.0, 336.0, 132.0, 22.0 ],
					"text" : "route #1_leader1toggle"
				}

			}
, 			{
				"box" : 				{
					"id" : "obj-31",
					"maxclass" : "newobj",
					"numinlets" : 1,
					"numoutlets" : 0,
					"patching_rect" : [ 370.0, 294.0, 109.0, 22.0 ],
					"text" : "s #1_inversetoggle"
				}

			}
, 			{
				"box" : 				{
					"id" : "obj-32",
					"maxclass" : "newobj",
					"numinlets" : 2,
					"numoutlets" : 2,
					"outlettype" : [ "", "" ],
					"patching_rect" : [ 370.0, 268.0, 131.0, 22.0 ],
					"text" : "route #1_inversetoggle"
				}

			}
, 			{
				"box" : 				{
					"id" : "obj-29",
					"maxclass" : "newobj",
					"numinlets" : 1,
					"numoutlets" : 0,
					"patching_rect" : [ 224.0, 294.0, 119.0, 22.0 ],
					"text" : "s #1_reactive2toggle"
				}

			}
, 			{
				"box" : 				{
					"id" : "obj-30",
					"maxclass" : "newobj",
					"numinlets" : 2,
					"numoutlets" : 2,
					"outlettype" : [ "", "" ],
					"patching_rect" : [ 224.0, 268.0, 141.0, 22.0 ],
					"text" : "route #1_reactive2toggle"
				}

			}
, 			{
				"box" : 				{
					"id" : "obj-27",
					"maxclass" : "newobj",
					"numinlets" : 1,
					"numoutlets" : 0,
					"patching_rect" : [ 68.0, 294.0, 119.0, 22.0 ],
					"text" : "s #1_reactive1toggle"
				}

			}
, 			{
				"box" : 				{
					"id" : "obj-28",
					"maxclass" : "newobj",
					"numinlets" : 2,
					"numoutlets" : 2,
					"outlettype" : [ "", "" ],
					"patching_rect" : [ 68.0, 268.0, 141.0, 22.0 ],
					"text" : "route #1_reactive1toggle"
				}

			}
, 			{
				"box" : 				{
					"id" : "obj-25",
					"maxclass" : "newobj",
					"numinlets" : 1,
					"numoutlets" : 0,
					"patching_rect" : [ 370.0, 233.0, 119.0, 22.0 ],
					"text" : "s #1_follower2toggle"
				}

			}
, 			{
				"box" : 				{
					"id" : "obj-26",
					"maxclass" : "newobj",
					"numinlets" : 2,
					"numoutlets" : 2,
					"outlettype" : [ "", "" ],
					"patching_rect" : [ 370.0, 207.0, 140.0, 22.0 ],
					"text" : "route #1_follower2toggle"
				}

			}
, 			{
				"box" : 				{
					"id" : "obj-18",
					"maxclass" : "newobj",
					"numinlets" : 2,
					"numoutlets" : 2,
					"outlettype" : [ "", "" ],
					"patching_rect" : [ 674.0, 278.0, 81.0, 22.0 ],
					"text" : "route #1glitch"
				}

			}
, 			{
				"box" : 				{
					"id" : "obj-19",
					"maxclass" : "newobj",
					"numinlets" : 2,
					"numoutlets" : 2,
					"outlettype" : [ "", "" ],
					"patching_rect" : [ 674.0, 222.0, 122.0, 22.0 ],
					"text" : "route #1slowingcurve"
				}

			}
, 			{
				"box" : 				{
					"id" : "obj-20",
					"maxclass" : "newobj",
					"numinlets" : 2,
					"numoutlets" : 2,
					"outlettype" : [ "", "" ],
					"patching_rect" : [ 674.0, 167.0, 101.0, 22.0 ],
					"text" : "route #1pitchgest"
				}

			}
, 			{
				"box" : 				{
					"id" : "obj-21",
					"maxclass" : "newobj",
					"numinlets" : 2,
					"numoutlets" : 2,
					"outlettype" : [ "", "" ],
					"patching_rect" : [ 674.0, 114.0, 94.0, 22.0 ],
					"text" : "route #1linegest"
				}

			}
, 			{
				"box" : 				{
					"id" : "obj-22",
					"maxclass" : "newobj",
					"numinlets" : 2,
					"numoutlets" : 2,
					"outlettype" : [ "", "" ],
					"patching_rect" : [ 674.0, 56.0, 116.0, 22.0 ],
					"text" : "route #1randomgest"
				}

			}
, 			{
				"box" : 				{
					"id" : "obj-12",
					"maxclass" : "newobj",
					"numinlets" : 1,
					"numoutlets" : 0,
					"patching_rect" : [ 674.0, 302.0, 59.0, 22.0 ],
					"text" : "s #1glitch"
				}

			}
, 			{
				"box" : 				{
					"id" : "obj-13",
					"maxclass" : "newobj",
					"numinlets" : 1,
					"numoutlets" : 0,
					"patching_rect" : [ 674.0, 246.0, 101.0, 22.0 ],
					"text" : "s #1slowingcurve"
				}

			}
, 			{
				"box" : 				{
					"id" : "obj-14",
					"maxclass" : "newobj",
					"numinlets" : 1,
					"numoutlets" : 0,
					"patching_rect" : [ 674.0, 191.0, 79.0, 22.0 ],
					"text" : "s #1pitchgest"
				}

			}
, 			{
				"box" : 				{
					"id" : "obj-15",
					"maxclass" : "newobj",
					"numinlets" : 1,
					"numoutlets" : 0,
					"patching_rect" : [ 674.0, 138.0, 73.0, 22.0 ],
					"text" : "s #1linegest"
				}

			}
, 			{
				"box" : 				{
					"id" : "obj-16",
					"maxclass" : "newobj",
					"numinlets" : 1,
					"numoutlets" : 0,
					"patching_rect" : [ 674.0, 80.0, 95.0, 22.0 ],
					"text" : "s #1randomgest"
				}

			}
, 			{
				"box" : 				{
					"id" : "obj-7",
					"maxclass" : "newobj",
					"numinlets" : 1,
					"numoutlets" : 0,
					"patching_rect" : [ 338.0, 124.0, 81.0, 22.0 ],
					"text" : "s #1_fbtoggle"
				}

			}
, 			{
				"box" : 				{
					"id" : "obj-8",
					"maxclass" : "newobj",
					"numinlets" : 2,
					"numoutlets" : 2,
					"outlettype" : [ "", "" ],
					"patching_rect" : [ 338.0, 94.0, 102.0, 22.0 ],
					"text" : "route #1_fbtoggle"
				}

			}
, 			{
				"box" : 				{
					"id" : "obj-3",
					"maxclass" : "newobj",
					"numinlets" : 1,
					"numoutlets" : 0,
					"patching_rect" : [ 200.0, 124.0, 97.0, 22.0 ],
					"text" : "s #1_onofftoggle"
				}

			}
, 			{
				"box" : 				{
					"id" : "obj-4",
					"maxclass" : "newobj",
					"numinlets" : 2,
					"numoutlets" : 2,
					"outlettype" : [ "", "" ],
					"patching_rect" : [ 200.0, 94.0, 118.0, 22.0 ],
					"text" : "route #1_onofftoggle"
				}

			}
, 			{
				"box" : 				{
					"id" : "obj-2",
					"maxclass" : "newobj",
					"numinlets" : 1,
					"numoutlets" : 0,
					"patching_rect" : [ 68.0, 124.0, 94.0, 22.0 ],
					"text" : "s #1_traintoggle"
				}

			}
, 			{
				"box" : 				{
					"id" : "obj-1",
					"maxclass" : "newobj",
					"numinlets" : 2,
					"numoutlets" : 2,
					"outlettype" : [ "", "" ],
					"patching_rect" : [ 68.0, 94.0, 115.0, 22.0 ],
					"text" : "route #1_traintoggle"
				}

			}
, 			{
				"box" : 				{
					"id" : "obj-9",
					"maxclass" : "newobj",
					"numinlets" : 1,
					"numoutlets" : 0,
					"patching_rect" : [ 224.0, 233.0, 117.0, 22.0 ],
					"text" : "s #1_doubler2toggle"
				}

			}
, 			{
				"box" : 				{
					"id" : "obj-10",
					"maxclass" : "newobj",
					"numinlets" : 2,
					"numoutlets" : 2,
					"outlettype" : [ "", "" ],
					"patching_rect" : [ 224.0, 207.0, 139.0, 22.0 ],
					"text" : "route #1_doubler2toggle"
				}

			}
, 			{
				"box" : 				{
					"id" : "obj-6",
					"maxclass" : "newobj",
					"numinlets" : 1,
					"numoutlets" : 0,
					"patching_rect" : [ 68.0, 233.0, 117.0, 22.0 ],
					"text" : "s #1_doubler1toggle"
				}

			}
, 			{
				"box" : 				{
					"id" : "obj-5",
					"maxclass" : "newobj",
					"numinlets" : 2,
					"numoutlets" : 2,
					"outlettype" : [ "", "" ],
					"patching_rect" : [ 68.0, 207.0, 139.0, 22.0 ],
					"text" : "route #1_doubler1toggle"
				}

			}
, 			{
				"box" : 				{
					"comment" : "",
					"id" : "obj-11",
					"index" : 0,
					"maxclass" : "inlet",
					"numinlets" : 0,
					"numoutlets" : 1,
					"outlettype" : [ "" ],
					"patching_rect" : [ 68.0, 52.0, 30.0, 30.0 ]
				}

			}
 ],
		"lines" : [ 			{
				"patchline" : 				{
					"destination" : [ "obj-2", 0 ],
					"midpoints" : [ 77.5, 117.0, 77.5, 117.0 ],
					"source" : [ "obj-1", 0 ]
				}

			}
, 			{
				"patchline" : 				{
					"destination" : [ "obj-9", 0 ],
					"midpoints" : [ 233.5, 231.0, 233.5, 231.0 ],
					"source" : [ "obj-10", 0 ]
				}

			}
, 			{
				"patchline" : 				{
					"destination" : [ "obj-1", 0 ],
					"midpoints" : [ 77.5, 84.0, 77.5, 84.0 ],
					"order" : 16,
					"source" : [ "obj-11", 0 ]
				}

			}
, 			{
				"patchline" : 				{
					"destination" : [ "obj-10", 0 ],
					"midpoints" : [ 77.5, 84.0, 55.0, 84.0, 55.0, 192.0, 233.5, 192.0 ],
					"order" : 11,
					"source" : [ "obj-11", 0 ]
				}

			}
, 			{
				"patchline" : 				{
					"destination" : [ "obj-18", 0 ],
					"midpoints" : [ 77.5, 84.0, 55.0, 84.0, 55.0, 192.0, 661.0, 192.0, 661.0, 273.0, 683.5, 273.0 ],
					"order" : 0,
					"source" : [ "obj-11", 0 ]
				}

			}
, 			{
				"patchline" : 				{
					"destination" : [ "obj-19", 0 ],
					"midpoints" : [ 77.5, 84.0, 55.0, 84.0, 55.0, 192.0, 661.0, 192.0, 661.0, 216.0, 683.5, 216.0 ],
					"order" : 1,
					"source" : [ "obj-11", 0 ]
				}

			}
, 			{
				"patchline" : 				{
					"destination" : [ "obj-20", 0 ],
					"midpoints" : [ 77.5, 84.0, 55.0, 84.0, 55.0, 162.0, 683.5, 162.0 ],
					"order" : 2,
					"source" : [ "obj-11", 0 ]
				}

			}
, 			{
				"patchline" : 				{
					"destination" : [ "obj-21", 0 ],
					"midpoints" : [ 77.5, 84.0, 55.0, 84.0, 55.0, 156.0, 661.0, 156.0, 661.0, 108.0, 683.5, 108.0 ],
					"order" : 3,
					"source" : [ "obj-11", 0 ]
				}

			}
, 			{
				"patchline" : 				{
					"destination" : [ "obj-22", 0 ],
					"midpoints" : [ 77.5, 84.0, 109.0, 84.0, 109.0, 51.0, 683.5, 51.0 ],
					"order" : 4,
					"source" : [ "obj-11", 0 ]
				}

			}
, 			{
				"patchline" : 				{
					"destination" : [ "obj-28", 0 ],
					"midpoints" : [ 77.5, 84.0, 55.0, 84.0, 55.0, 264.0, 77.5, 264.0 ],
					"order" : 14,
					"source" : [ "obj-11", 0 ]
				}

			}
, 			{
				"patchline" : 				{
					"destination" : [ "obj-30", 0 ],
					"midpoints" : [ 77.5, 84.0, 55.0, 84.0, 55.0, 192.0, 211.0, 192.0, 211.0, 264.0, 233.5, 264.0 ],
					"order" : 10,
					"source" : [ "obj-11", 0 ]
				}

			}
, 			{
				"patchline" : 				{
					"destination" : [ "obj-32", 0 ],
					"midpoints" : [ 77.5, 84.0, 55.0, 84.0, 55.0, 192.0, 367.0, 192.0, 367.0, 261.0, 379.5, 261.0 ],
					"order" : 7,
					"source" : [ "obj-11", 0 ]
				}

			}
, 			{
				"patchline" : 				{
					"destination" : [ "obj-34", 0 ],
					"midpoints" : [ 77.5, 84.0, 55.0, 84.0, 55.0, 330.0, 77.5, 330.0 ],
					"order" : 13,
					"source" : [ "obj-11", 0 ]
				}

			}
, 			{
				"patchline" : 				{
					"destination" : [ "obj-36", 0 ],
					"midpoints" : [ 77.5, 84.0, 55.0, 84.0, 55.0, 192.0, 211.0, 192.0, 211.0, 330.0, 233.5, 330.0 ],
					"order" : 9,
					"source" : [ "obj-11", 0 ]
				}

			}
, 			{
				"patchline" : 				{
					"destination" : [ "obj-38", 0 ],
					"midpoints" : [ 77.5, 84.0, 55.0, 84.0, 55.0, 192.0, 367.0, 192.0, 367.0, 327.0, 379.5, 327.0 ],
					"order" : 6,
					"source" : [ "obj-11", 0 ]
				}

			}
, 			{
				"patchline" : 				{
					"destination" : [ "obj-4", 0 ],
					"midpoints" : [ 77.5, 90.0, 209.5, 90.0 ],
					"order" : 12,
					"source" : [ "obj-11", 0 ]
				}

			}
, 			{
				"patchline" : 				{
					"destination" : [ "obj-40", 0 ],
					"midpoints" : [ 77.5, 84.0, 55.0, 84.0, 55.0, 192.0, 520.0, 192.0, 520.0, 330.0, 519.5, 330.0 ],
					"order" : 5,
					"source" : [ "obj-11", 0 ]
				}

			}
, 			{
				"patchline" : 				{
					"destination" : [ "obj-5", 0 ],
					"midpoints" : [ 77.5, 84.0, 55.0, 84.0, 55.0, 192.0, 77.5, 192.0 ],
					"order" : 15,
					"source" : [ "obj-11", 0 ]
				}

			}
, 			{
				"patchline" : 				{
					"destination" : [ "obj-8", 0 ],
					"midpoints" : [ 77.5, 84.0, 55.0, 84.0, 55.0, 156.0, 325.0, 156.0, 325.0, 90.0, 347.5, 90.0 ],
					"order" : 8,
					"source" : [ "obj-11", 0 ]
				}

			}
, 			{
				"patchline" : 				{
					"destination" : [ "obj-12", 0 ],
					"midpoints" : [ 683.5, 303.0, 683.5, 303.0 ],
					"source" : [ "obj-18", 0 ]
				}

			}
, 			{
				"patchline" : 				{
					"destination" : [ "obj-13", 0 ],
					"midpoints" : [ 683.5, 246.0, 683.5, 246.0 ],
					"source" : [ "obj-19", 0 ]
				}

			}
, 			{
				"patchline" : 				{
					"destination" : [ "obj-14", 0 ],
					"midpoints" : [ 683.5, 192.0, 683.5, 192.0 ],
					"source" : [ "obj-20", 0 ]
				}

			}
, 			{
				"patchline" : 				{
					"destination" : [ "obj-15", 0 ],
					"midpoints" : [ 683.5, 138.0, 683.5, 138.0 ],
					"source" : [ "obj-21", 0 ]
				}

			}
, 			{
				"patchline" : 				{
					"destination" : [ "obj-16", 0 ],
					"midpoints" : [ 683.5, 81.0, 683.5, 81.0 ],
					"source" : [ "obj-22", 0 ]
				}

			}
, 			{
				"patchline" : 				{
					"destination" : [ "obj-25", 0 ],
					"midpoints" : [ 379.5, 231.0, 379.5, 231.0 ],
					"source" : [ "obj-26", 0 ]
				}

			}
, 			{
				"patchline" : 				{
					"destination" : [ "obj-27", 0 ],
					"midpoints" : [ 77.5, 291.0, 77.5, 291.0 ],
					"source" : [ "obj-28", 0 ]
				}

			}
, 			{
				"patchline" : 				{
					"destination" : [ "obj-29", 0 ],
					"midpoints" : [ 233.5, 291.0, 233.5, 291.0 ],
					"source" : [ "obj-30", 0 ]
				}

			}
, 			{
				"patchline" : 				{
					"destination" : [ "obj-31", 0 ],
					"midpoints" : [ 379.5, 291.0, 379.5, 291.0 ],
					"source" : [ "obj-32", 0 ]
				}

			}
, 			{
				"patchline" : 				{
					"destination" : [ "obj-33", 0 ],
					"midpoints" : [ 77.5, 360.0, 77.5, 360.0 ],
					"source" : [ "obj-34", 0 ]
				}

			}
, 			{
				"patchline" : 				{
					"destination" : [ "obj-35", 0 ],
					"midpoints" : [ 233.5, 360.0, 233.5, 360.0 ],
					"source" : [ "obj-36", 0 ]
				}

			}
, 			{
				"patchline" : 				{
					"destination" : [ "obj-37", 0 ],
					"midpoints" : [ 379.5, 360.0, 379.5, 360.0 ],
					"source" : [ "obj-38", 0 ]
				}

			}
, 			{
				"patchline" : 				{
					"destination" : [ "obj-3", 0 ],
					"midpoints" : [ 209.5, 117.0, 209.5, 117.0 ],
					"source" : [ "obj-4", 0 ]
				}

			}
, 			{
				"patchline" : 				{
					"destination" : [ "obj-39", 0 ],
					"midpoints" : [ 519.5, 360.0, 519.5, 360.0 ],
					"source" : [ "obj-40", 0 ]
				}

			}
, 			{
				"patchline" : 				{
					"destination" : [ "obj-6", 0 ],
					"midpoints" : [ 77.5, 231.0, 77.5, 231.0 ],
					"source" : [ "obj-5", 0 ]
				}

			}
, 			{
				"patchline" : 				{
					"destination" : [ "obj-7", 0 ],
					"midpoints" : [ 347.5, 117.0, 347.5, 117.0 ],
					"source" : [ "obj-8", 0 ]
				}

			}
 ],
		"dependency_cache" : [  ],
		"autosave" : 0,
		"styles" : [ 			{
				"name" : "AudioStatus_Menu",
				"default" : 				{
					"bgfillcolor" : 					{
						"type" : "color",
						"color" : [ 0.294118, 0.313726, 0.337255, 1 ],
						"color1" : [ 0.454902, 0.462745, 0.482353, 0.0 ],
						"color2" : [ 0.290196, 0.309804, 0.301961, 1.0 ],
						"angle" : 270.0,
						"proportion" : 0.39,
						"autogradient" : 0
					}

				}
,
				"parentstyle" : "",
				"multi" : 0
			}
, 			{
				"name" : "jpatcher001",
				"default" : 				{
					"fontsize" : [ 10.0 ],
					"accentcolor" : [ 0.862745, 0.870588, 0.878431, 1.0 ],
					"bgcolor" : [ 0.862745, 0.870588, 0.878431, 1.0 ],
					"clearcolor" : [ 0.862745, 0.870588, 0.878431, 0.0 ],
					"selectioncolor" : [ 0.32549, 0.345098, 0.372549, 1.0 ],
					"textcolor_inverse" : [ 0.0, 0.0, 0.0, 1.0 ],
					"patchlinecolor" : [ 0.65098, 0.666667, 0.662745, 0.9 ],
					"bgfillcolor" : 					{
						"type" : "gradient",
						"color" : [ 0.290196, 0.309804, 0.301961, 1.0 ],
						"color1" : [ 0.862745, 0.870588, 0.878431, 1.0 ],
						"color2" : [ 0.862745, 0.870588, 0.878431, 1.0 ],
						"angle" : 270.0,
						"proportion" : 0.39,
						"autogradient" : 0
					}

				}
,
				"parentstyle" : "",
				"multi" : 0
			}
, 			{
				"name" : "jpatcher001-1",
				"default" : 				{
					"fontsize" : [ 10.0 ],
					"accentcolor" : [ 0.65098, 0.666667, 0.662745, 1.0 ],
					"bgcolor" : [ 0.862745, 0.870588, 0.878431, 1.0 ],
					"clearcolor" : [ 0.862745, 0.870588, 0.878431, 0.0 ],
					"selectioncolor" : [ 0.32549, 0.345098, 0.372549, 1.0 ],
					"textcolor_inverse" : [ 0.0, 0.0, 0.0, 1.0 ],
					"color" : [ 0.031373, 0.541176, 0.498039, 1.0 ],
					"patchlinecolor" : [ 0.65098, 0.666667, 0.662745, 0.9 ],
					"bgfillcolor" : 					{
						"type" : "color",
						"color1" : [ 0.862745, 0.870588, 0.878431, 1.0 ],
						"color2" : [ 0.862745, 0.870588, 0.878431, 1.0 ],
						"color" : [ 0.862745, 0.870588, 0.878431, 1.0 ],
						"angle" : 270.0,
						"proportion" : 0.39
					}

				}
,
				"parentstyle" : "",
				"multi" : 0
			}
, 			{
				"name" : "ksliderWhite",
				"default" : 				{
					"color" : [ 1.0, 1.0, 1.0, 1.0 ]
				}
,
				"parentstyle" : "",
				"multi" : 0
			}
, 			{
				"name" : "newobjBlue-1",
				"default" : 				{
					"accentcolor" : [ 0.317647, 0.654902, 0.976471, 1.0 ]
				}
,
				"parentstyle" : "",
				"multi" : 0
			}
, 			{
				"name" : "newobjGreen-1",
				"default" : 				{
					"accentcolor" : [ 0.0, 0.533333, 0.168627, 1.0 ]
				}
,
				"parentstyle" : "",
				"multi" : 0
			}
, 			{
				"name" : "newobjYellow-1",
				"default" : 				{
					"fontsize" : [ 12.059008 ],
					"accentcolor" : [ 0.82517, 0.78181, 0.059545, 1.0 ]
				}
,
				"parentstyle" : "",
				"multi" : 0
			}
, 			{
				"name" : "numberGold-1",
				"default" : 				{
					"accentcolor" : [ 0.764706, 0.592157, 0.101961, 1.0 ]
				}
,
				"parentstyle" : "",
				"multi" : 0
			}
 ]
	}

}
